<svg version="1.1" id="Layer_1" xmlns="http://www.w3.org/2000/svg" xmlns:xlink="http://www.w3.org/1999/xlink" x="0px" y="0px"
	 width="100%" viewBox="0 0 685 232" enable-background="new 0 0 685 232" xml:space="preserve">
<path fill="#FEFEFE" opacity="1.000000" stroke="none" 
	d="
M488.000000,233.000000 
	C325.333344,233.000000 163.166672,233.000000 1.000000,233.000000 
	C1.000000,155.666672 1.000000,78.333336 1.000000,1.000000 
	C229.333328,1.000000 457.666656,1.000000 686.000000,1.000000 
	C686.000000,78.333336 686.000000,155.666672 686.000000,233.000000 
	C620.166687,233.000000 554.333313,233.000000 488.000000,233.000000 
M202.301178,136.500153 
	C201.528793,124.392723 201.118301,112.248253 199.884003,100.188103 
	C198.604385,87.685074 191.835007,80.181404 179.253387,78.995003 
	C161.226532,77.295143 143.067123,76.134827 124.972496,76.234398 
	C101.206413,76.365181 77.421112,77.529915 53.698631,79.083229 
	C42.448444,79.819885 35.772903,86.999649 33.887348,98.223648 
	C32.705994,105.255829 31.989967,112.394958 31.543032,119.516106 
	C30.393633,137.829758 30.581551,156.144363 33.984837,174.231186 
	C36.120972,185.583694 42.845421,192.140442 54.166695,193.069321 
	C71.891548,194.523590 89.694870,195.873138 107.458443,195.794586 
	C131.228989,195.689468 155.029175,194.697769 178.745926,193.061905 
	C191.545288,192.179062 198.503265,184.510529 199.898209,171.820389 
	C201.150269,160.430099 201.534302,148.944366 202.301178,136.500153 
M512.085999,180.440613 
	C512.762085,178.582489 513.645874,176.771652 514.081299,174.858749 
	C517.452698,160.045547 516.273865,145.059525 515.447144,130.119949 
	C515.249573,126.549744 514.250244,122.916801 513.014160,119.533974 
	C510.619232,112.979790 506.472015,110.597527 499.522675,110.903854 
	C493.372131,111.174965 489.238892,114.748512 484.989868,120.170090 
	C484.989868,106.420860 484.989868,93.735725 484.989868,81.112839 
	C479.384186,81.112839 474.307678,81.112839 469.222717,81.112839 
	C469.222717,116.621979 469.222717,151.847534 469.222717,187.165222 
	C473.814240,187.165222 478.108917,187.165222 482.633881,187.165222 
	C483.335815,185.047943 484.021118,182.980789 484.771088,180.718643 
	C494.067352,190.985901 504.985443,191.003235 512.085999,180.440613 
M458.714935,137.500122 
	C458.714935,129.216934 458.714935,120.933746 458.714935,112.493393 
	C452.828827,112.493393 447.454132,112.493393 441.817535,112.493393 
	C441.817535,114.653854 441.817535,116.475700 441.817535,118.297546 
	C441.817505,135.117264 441.832184,151.936981 441.807770,168.756668 
	C441.801178,173.299789 438.637878,176.895630 434.730530,176.596375 
	C430.109344,176.242432 430.126190,172.584885 429.926361,169.218216 
	C429.847504,167.889938 429.849487,166.555679 429.849091,165.224136 
	C429.844238,149.570145 429.845978,133.916153 429.845978,118.262169 
	C429.845978,116.330597 429.845978,114.399025 429.845978,112.530212 
	C423.814819,112.530212 418.431366,112.530212 413.051483,112.530212 
	C413.051483,133.045227 413.029755,153.184174 413.092346,173.322891 
	C413.097412,174.954575 413.599121,176.605225 414.009125,178.211594 
	C415.920898,185.702881 421.020081,188.961288 428.765411,188.441650 
	C435.549164,187.986542 439.847565,184.037613 443.767578,178.447235 
	C444.418243,181.714600 444.929565,184.282135 445.486237,187.077499 
	C449.770660,187.077499 454.019989,187.077499 458.714905,187.077499 
	C458.714905,170.719833 458.714905,154.609985 458.714935,137.500122 
M344.324402,174.791168 
	C343.884430,171.691376 343.089142,168.594421 343.064178,165.491302 
	C342.935547,149.495468 343.004425,133.498047 343.004395,117.501190 
	C343.004395,115.764114 343.004395,114.027046 343.004395,112.422928 
	C336.915558,112.422928 331.644165,112.422928 326.270508,112.422928 
	C326.270508,132.972885 326.225677,153.263260 326.337799,173.552795 
	C326.349365,175.645828 327.117523,177.798141 327.842651,179.812042 
	C330.129700,186.163803 335.078308,188.991898 341.826813,188.485443 
	C348.570953,187.979324 353.104889,184.294540 356.168182,179.400055 
	C357.805634,182.035202 358.872589,185.892258 361.226562,186.990387 
	C364.069611,188.316681 368.003510,187.304596 371.514313,187.304596 
	C371.514313,162.057449 371.514313,137.202606 371.514313,112.454117 
	C365.829620,112.454117 360.567993,112.454117 354.995605,112.454117 
	C354.995605,114.551643 354.995636,116.359665 354.995605,118.167694 
	C354.995544,135.164352 355.041199,152.161209 354.970703,169.157578 
	C354.945953,175.126099 350.340790,177.865128 344.324402,174.791168 
M305.322937,112.949387 
	C287.601349,107.108429 272.985046,112.686821 271.370026,132.506744 
	C270.375519,144.711304 270.899689,157.091446 271.517120,169.353729 
	C271.828033,175.528397 274.367249,181.367294 279.890289,185.165970 
	C293.890259,194.794937 313.955872,186.714432 315.870911,169.957687 
	C317.242065,157.960007 317.119568,145.706879 316.622986,133.610428 
	C316.293945,125.595245 313.895050,117.778000 305.322937,112.949387 
M255.181931,177.459747 
	C253.620728,160.757782 257.283356,144.863678 262.173676,129.047134 
	C266.663849,114.524811 270.480682,99.794296 274.706512,84.755692 
	C268.938446,84.755692 263.688110,84.755692 257.892975,84.755692 
	C254.346619,101.016937 250.766083,117.434959 246.891678,135.200424 
	C243.115540,117.333656 239.645355,100.914589 236.218262,84.699326 
	C230.409012,84.699326 225.292480,84.699326 219.839264,84.699326 
	C220.007309,86.069649 220.004608,87.213943 220.300018,88.275276 
	C223.102432,98.343613 225.903214,108.412956 228.804886,118.452995 
	C234.757767,139.050323 241.182922,159.561157 238.699585,181.487656 
	C238.486404,183.369919 238.671326,185.297287 238.671326,187.102203 
	C244.585571,187.102203 249.710861,187.102203 255.181931,187.102203 
	C255.181931,184.069107 255.181931,181.255096 255.181931,177.459747 
M523.694336,155.485840 
	C524.038696,159.952591 524.051880,164.474686 524.787170,168.876129 
	C527.376526,184.375504 535.759827,190.301956 551.498291,188.076721 
	C563.314514,186.406052 570.244080,176.320389 567.184753,165.106400 
	C562.651672,164.849045 558.092102,164.590195 553.570068,164.333466 
	C553.096008,167.458084 553.404114,170.512909 552.106567,172.539825 
	C550.826477,174.539520 547.991455,176.406403 545.703674,176.582840 
	C544.275574,176.692978 541.565552,173.747513 541.228821,171.853561 
	C540.289917,166.572800 540.288513,161.125381 539.883728,155.263397 
	C549.899841,155.263397 558.988770,155.263397 569.187805,155.263397 
	C568.384216,144.708511 568.317871,134.533371 566.522766,124.672958 
	C565.766296,120.517181 562.158081,115.740578 558.475220,113.461136 
	C544.853455,105.030243 527.259338,113.389030 525.081543,129.147675 
	C523.927307,137.499771 524.112244,146.036911 523.694336,155.485840 
M392.564789,187.335953 
	C395.319305,187.335953 398.073822,187.335953 401.177521,187.335953 
	C401.177521,157.260193 401.177521,127.844254 401.177521,97.930756 
	C406.928925,97.930756 412.322906,97.930756 417.782867,97.930756 
	C417.782867,93.305862 417.782867,89.184517 417.782867,84.849609 
	C401.103943,84.849609 384.588928,84.849609 368.175354,84.849609 
	C368.175354,89.470299 368.175354,93.695938 368.175354,98.220901 
	C373.651581,98.220901 378.769440,98.220901 384.539124,98.220901 
	C384.539124,128.032501 384.539124,157.542053 384.539124,187.335831 
	C387.346008,187.335831 389.491577,187.335831 392.564789,187.335953 
M632.922729,57.756100 
	C633.306519,52.490387 630.184998,53.890011 626.830811,54.555668 
	C626.830811,64.961571 626.830811,75.121368 626.830811,86.644409 
	C620.109802,76.273140 614.038879,67.172195 608.282043,57.876755 
	C606.270142,54.628162 604.164124,52.913883 600.274048,54.473179 
	C600.274048,68.591759 600.274048,82.649040 600.274048,96.754753 
	C602.165527,96.754753 603.752502,96.754753 605.839722,96.754753 
	C605.839722,86.310410 605.839722,76.121872 605.839722,65.933334 
	C612.770569,74.956421 618.930786,84.151291 624.734924,93.565712 
	C626.756287,96.844467 629.041138,97.760368 632.923035,96.464607 
	C632.923035,83.926430 632.923035,71.313324 632.922729,57.756100 
M642.878418,88.452370 
	C642.878418,91.219864 642.878418,93.987358 642.878418,97.072189 
	C645.107727,96.937492 646.677002,96.842682 648.760498,96.716805 
	C648.760498,91.300552 648.760498,86.231438 648.760498,81.102692 
	C653.563538,80.792000 657.879089,80.805054 662.098877,80.175972 
	C669.696228,79.043381 673.518799,74.621040 673.563599,67.547874 
	C673.606689,60.742996 669.447815,55.175117 662.422852,54.372768 
	C656.090820,53.649559 649.611023,54.220196 642.878357,54.220196 
	C642.878357,65.572479 642.878357,76.517418 642.878418,88.452370 
z"/>
<path fill="#FF0202" opacity="1.000000" stroke="none" 
	d="
M202.301208,137.000458 
	C201.534302,148.944366 201.150269,160.430099 199.898209,171.820389 
	C198.503265,184.510529 191.545288,192.179062 178.745926,193.061905 
	C155.029175,194.697769 131.228989,195.689468 107.458443,195.794586 
	C89.694870,195.873138 71.891548,194.523590 54.166695,193.069321 
	C42.845421,192.140442 36.120972,185.583694 33.984837,174.231186 
	C30.581551,156.144363 30.393633,137.829758 31.543032,119.516106 
	C31.989967,112.394958 32.705994,105.255829 33.887348,98.223648 
	C35.772903,86.999649 42.448444,79.819885 53.698631,79.083229 
	C77.421112,77.529915 101.206413,76.365181 124.972496,76.234398 
	C143.067123,76.134827 161.226532,77.295143 179.253387,78.995003 
	C191.835007,80.181404 198.604385,87.685074 199.884003,100.188103 
	C201.118301,112.248253 201.528793,124.392723 202.301208,137.000458 
M128.500275,127.002449 
	C119.079758,121.577698 109.659248,116.152954 99.975594,110.576675 
	C99.975594,127.830994 99.975594,144.329224 99.975594,161.467712 
	C114.816292,152.892807 129.090134,144.645416 144.004501,136.027939 
	C138.537216,132.830597 133.843674,130.085739 128.500275,127.002449 
z"/>
<path fill="#222222" opacity="1.000000" stroke="none" 
	d="
M511.928467,180.781708 
	C504.985443,191.003235 494.067352,190.985901 484.771088,180.718643 
	C484.021118,182.980789 483.335815,185.047943 482.633881,187.165222 
	C478.108917,187.165222 473.814240,187.165222 469.222717,187.165222 
	C469.222717,151.847534 469.222717,116.621979 469.222717,81.112839 
	C474.307678,81.112839 479.384186,81.112839 484.989868,81.112839 
	C484.989868,93.735725 484.989868,106.420860 484.989868,120.170090 
	C489.238892,114.748512 493.372131,111.174965 499.522675,110.903854 
	C506.472015,110.597527 510.619232,112.979790 513.014160,119.533974 
	C514.250244,122.916801 515.249573,126.549744 515.447144,130.119949 
	C516.273865,145.059525 517.452698,160.045547 514.081299,174.858749 
	C513.645874,176.771652 512.762085,178.582489 511.928467,180.781708 
M489.871490,176.012177 
	C494.967865,176.905594 497.785858,174.174500 497.897675,169.604065 
	C498.229248,156.049316 498.263641,142.475906 497.856262,128.926575 
	C497.794464,126.871582 494.735199,123.262657 493.109009,123.288643 
	C490.739777,123.326523 488.025574,125.663765 486.211304,127.693581 
	C485.100708,128.936111 485.124146,131.435669 485.109314,133.374329 
	C485.019165,145.165390 485.172852,156.959137 484.996094,168.748245 
	C484.945068,172.151123 485.921356,174.496613 489.871490,176.012177 
z"/>
<path fill="#262626" opacity="1.000000" stroke="none" 
	d="
M458.714905,138.000122 
	C458.714905,154.609985 458.714905,170.719833 458.714905,187.077499 
	C454.019989,187.077499 449.770660,187.077499 445.486237,187.077499 
	C444.929565,184.282135 444.418243,181.714600 443.767578,178.447235 
	C439.847565,184.037613 435.549164,187.986542 428.765411,188.441650 
	C421.020081,188.961288 415.920898,185.702881 414.009125,178.211594 
	C413.599121,176.605225 413.097412,174.954575 413.092346,173.322891 
	C413.029755,153.184174 413.051483,133.045227 413.051483,112.530212 
	C418.431366,112.530212 423.814819,112.530212 429.845978,112.530212 
	C429.845978,114.399025 429.845978,116.330597 429.845978,118.262169 
	C429.845978,133.916153 429.844238,149.570145 429.849091,165.224136 
	C429.849487,166.555679 429.847504,167.889938 429.926361,169.218216 
	C430.126190,172.584885 430.109344,176.242432 434.730530,176.596375 
	C438.637878,176.895630 441.801178,173.299789 441.807770,168.756668 
	C441.832184,151.936981 441.817505,135.117264 441.817535,118.297546 
	C441.817535,116.475700 441.817535,114.653854 441.817535,112.493393 
	C447.454132,112.493393 452.828827,112.493393 458.714935,112.493393 
	C458.714935,120.933746 458.714935,129.216934 458.714905,138.000122 
z"/>
<path fill="#242424" opacity="1.000000" stroke="none" 
	d="
M344.608093,175.067139 
	C350.340790,177.865128 354.945953,175.126099 354.970703,169.157578 
	C355.041199,152.161209 354.995544,135.164352 354.995605,118.167694 
	C354.995636,116.359665 354.995605,114.551643 354.995605,112.454117 
	C360.567993,112.454117 365.829620,112.454117 371.514313,112.454117 
	C371.514313,137.202606 371.514313,162.057449 371.514313,187.304596 
	C368.003510,187.304596 364.069611,188.316681 361.226562,186.990387 
	C358.872589,185.892258 357.805634,182.035202 356.168182,179.400055 
	C353.104889,184.294540 348.570953,187.979324 341.826813,188.485443 
	C335.078308,188.991898 330.129700,186.163803 327.842651,179.812042 
	C327.117523,177.798141 326.349365,175.645828 326.337799,173.552795 
	C326.225677,153.263260 326.270508,132.972885 326.270508,112.422928 
	C331.644165,112.422928 336.915558,112.422928 343.004395,112.422928 
	C343.004395,114.027046 343.004395,115.764114 343.004395,117.501190 
	C343.004425,133.498047 342.935547,149.495468 343.064178,165.491302 
	C343.089142,168.594421 343.884430,171.691376 344.608093,175.067139 
z"/>
<path fill="#262626" opacity="1.000000" stroke="none" 
	d="
M305.664795,113.117477 
	C313.895050,117.778000 316.293945,125.595245 316.622986,133.610428 
	C317.119568,145.706879 317.242065,157.960007 315.870911,169.957687 
	C313.955872,186.714432 293.890259,194.794937 279.890289,185.165970 
	C274.367249,181.367294 271.828033,175.528397 271.517120,169.353729 
	C270.899689,157.091446 270.375519,144.711304 271.370026,132.506744 
	C272.985046,112.686821 287.601349,107.108429 305.664795,113.117477 
M287.703796,159.480194 
	C288.081024,163.927673 288.056091,168.466766 289.037964,172.776474 
	C289.418579,174.447052 292.215027,176.841141 293.663300,176.679993 
	C295.579163,176.466812 297.453094,174.244263 298.945404,172.536194 
	C299.708160,171.663193 299.840729,170.030533 299.847900,168.738922 
	C299.917236,156.278580 300.085815,143.813400 299.794739,131.359680 
	C299.705231,127.529686 299.223328,122.480949 293.807404,122.605751 
	C288.504120,122.727966 288.177856,127.664703 288.029938,131.573349 
	C287.690796,140.535675 287.785309,149.514435 287.703796,159.480194 
z"/>
<path fill="#262626" opacity="1.000000" stroke="none" 
	d="
M255.181931,177.950409 
	C255.181931,181.255096 255.181931,184.069107 255.181931,187.102203 
	C249.710861,187.102203 244.585571,187.102203 238.671326,187.102203 
	C238.671326,185.297287 238.486404,183.369919 238.699585,181.487656 
	C241.182922,159.561157 234.757767,139.050323 228.804886,118.452995 
	C225.903214,108.412956 223.102432,98.343613 220.300018,88.275276 
	C220.004608,87.213943 220.007309,86.069649 219.839264,84.699326 
	C225.292480,84.699326 230.409012,84.699326 236.218262,84.699326 
	C239.645355,100.914589 243.115540,117.333656 246.891678,135.200424 
	C250.766083,117.434959 254.346619,101.016937 257.892975,84.755692 
	C263.688110,84.755692 268.938446,84.755692 274.706512,84.755692 
	C270.480682,99.794296 266.663849,114.524811 262.173676,129.047134 
	C257.283356,144.863678 253.620728,160.757782 255.181931,177.950409 
z"/>
<path fill="#232323" opacity="1.000000" stroke="none" 
	d="
M523.693481,154.988174 
	C524.112244,146.036911 523.927307,137.499771 525.081543,129.147675 
	C527.259338,113.389030 544.853455,105.030243 558.475220,113.461136 
	C562.158081,115.740578 565.766296,120.517181 566.522766,124.672958 
	C568.317871,134.533371 568.384216,144.708511 569.187805,155.263397 
	C558.988770,155.263397 549.899841,155.263397 539.883728,155.263397 
	C540.288513,161.125381 540.289917,166.572800 541.228821,171.853561 
	C541.565552,173.747513 544.275574,176.692978 545.703674,176.582840 
	C547.991455,176.406403 550.826477,174.539520 552.106567,172.539825 
	C553.404114,170.512909 553.096008,167.458084 553.570068,164.333466 
	C558.092102,164.590195 562.651672,164.849045 567.184753,165.106400 
	C570.244080,176.320389 563.314514,186.406052 551.498291,188.076721 
	C535.759827,190.301956 527.376526,184.375504 524.787170,168.876129 
	C524.051880,164.474686 524.038696,159.952591 523.693481,154.988174 
M550.472961,124.219353 
	C545.452026,120.704048 541.705994,121.946495 540.958618,127.810486 
	C540.236572,133.474899 540.240479,139.231842 539.923157,144.990601 
	C544.698608,144.990601 548.601074,144.990601 553.385376,144.990601 
	C552.513184,137.995132 551.696777,131.446747 550.472961,124.219353 
z"/>
<path fill="#282828" opacity="1.000000" stroke="none" 
	d="
M392.100952,187.335892 
	C389.491577,187.335831 387.346008,187.335831 384.539124,187.335831 
	C384.539124,157.542053 384.539124,128.032501 384.539124,98.220901 
	C378.769440,98.220901 373.651581,98.220901 368.175354,98.220901 
	C368.175354,93.695938 368.175354,89.470299 368.175354,84.849609 
	C384.588928,84.849609 401.103943,84.849609 417.782867,84.849609 
	C417.782867,89.184517 417.782867,93.305862 417.782867,97.930756 
	C412.322906,97.930756 406.928925,97.930756 401.177521,97.930756 
	C401.177521,127.844254 401.177521,157.260193 401.177521,187.335953 
	C398.073822,187.335953 395.319305,187.335953 392.100952,187.335892 
z"/>
<path fill="#6A6A6A" opacity="1.000000" stroke="none" 
	d="
M632.922852,58.228165 
	C632.923035,71.313324 632.923035,83.926430 632.923035,96.464607 
	C629.041138,97.760368 626.756287,96.844467 624.734924,93.565712 
	C618.930786,84.151291 612.770569,74.956421 605.839722,65.933334 
	C605.839722,76.121872 605.839722,86.310410 605.839722,96.754753 
	C603.752502,96.754753 602.165527,96.754753 600.274048,96.754753 
	C600.274048,82.649040 600.274048,68.591759 600.274048,54.473179 
	C604.164124,52.913883 606.270142,54.628162 608.282043,57.876755 
	C614.038879,67.172195 620.109802,76.273140 626.830811,86.644409 
	C626.830811,75.121368 626.830811,64.961571 626.830811,54.555668 
	C630.184998,53.890011 633.306519,52.490387 632.922852,58.228165 
z"/>
<path fill="#666666" opacity="1.000000" stroke="none" 
	d="
M642.878418,87.957359 
	C642.878357,76.517418 642.878357,65.572479 642.878357,54.220196 
	C649.611023,54.220196 656.090820,53.649559 662.422852,54.372768 
	C669.447815,55.175117 673.606689,60.742996 673.563599,67.547874 
	C673.518799,74.621040 669.696228,79.043381 662.098877,80.175972 
	C657.879089,80.805054 653.563538,80.792000 648.760498,81.102692 
	C648.760498,86.231438 648.760498,91.300552 648.760498,96.716805 
	C646.677002,96.842682 645.107727,96.937492 642.878418,97.072189 
	C642.878418,93.987358 642.878418,91.219864 642.878418,87.957359 
M664.050720,60.036594 
	C659.059998,59.434517 654.069275,58.832436 648.782593,58.194653 
	C648.782593,64.719963 648.782593,70.230339 648.782593,76.002388 
	C652.120728,76.002388 655.090454,75.983948 658.059937,76.006973 
	C661.914795,76.036873 665.443909,75.269371 667.089844,71.301178 
	C668.772400,67.244263 668.090149,63.519547 664.050720,60.036594 
z"/>
<path fill="#FFFCFC" opacity="1.000000" stroke="none" 
	d="
M128.825195,127.171677 
	C133.843674,130.085739 138.537216,132.830597 144.004501,136.027939 
	C129.090134,144.645416 114.816292,152.892807 99.975594,161.467712 
	C99.975594,144.329224 99.975594,127.830994 99.975594,110.576675 
	C109.659248,116.152954 119.079758,121.577698 128.825195,127.171677 
z"/>
<path fill="#FBFBFB" opacity="1.000000" stroke="none" 
	d="
M489.470856,175.921890 
	C485.921356,174.496613 484.945068,172.151123 484.996094,168.748245 
	C485.172852,156.959137 485.019165,145.165390 485.109314,133.374329 
	C485.124146,131.435669 485.100708,128.936111 486.211304,127.693581 
	C488.025574,125.663765 490.739777,123.326523 493.109009,123.288643 
	C494.735199,123.262657 497.794464,126.871582 497.856262,128.926575 
	C498.263641,142.475906 498.229248,156.049316 497.897675,169.604065 
	C497.785858,174.174500 494.967865,176.905594 489.470856,175.921890 
z"/>
<path fill="#FCFCFC" opacity="1.000000" stroke="none" 
	d="
M287.703766,158.983353 
	C287.785309,149.514435 287.690796,140.535675 288.029938,131.573349 
	C288.177856,127.664703 288.504120,122.727966 293.807404,122.605751 
	C299.223328,122.480949 299.705231,127.529686 299.794739,131.359680 
	C300.085815,143.813400 299.917236,156.278580 299.847900,168.738922 
	C299.840729,170.030533 299.708160,171.663193 298.945404,172.536194 
	C297.453094,174.244263 295.579163,176.466812 293.663300,176.679993 
	C292.215027,176.841141 289.418579,174.447052 289.037964,172.776474 
	C288.056091,168.466766 288.081024,163.927673 287.703766,158.983353 
z"/>
<path fill="#F4F4F4" opacity="1.000000" stroke="none" 
	d="
M550.676697,124.558853 
	C551.696777,131.446747 552.513184,137.995132 553.385376,144.990601 
	C548.601074,144.990601 544.698608,144.990601 539.923157,144.990601 
	C540.240479,139.231842 540.236572,133.474899 540.958618,127.810486 
	C541.705994,121.946495 545.452026,120.704048 550.676697,124.558853 
z"/>
<path fill="#F9F9F9" opacity="1.000000" stroke="none" 
	d="
M664.396423,60.249527 
	C668.090149,63.519547 668.772400,67.244263 667.089844,71.301178 
	C665.443909,75.269371 661.914795,76.036873 658.059937,76.006973 
	C655.090454,75.983948 652.120728,76.002388 648.782593,76.002388 
	C648.782593,70.230339 648.782593,64.719963 648.782593,58.194653 
	C654.069275,58.832436 659.059998,59.434517 664.396423,60.249527 
z"/>
</svg>