<svg version="1.1" id="Layer_1" xmlns="http://www.w3.org/2000/svg" xmlns:xlink="http://www.w3.org/1999/xlink" x="0px" y="0px"
	 width="100%" viewBox="0 0 1024 1024" enable-background="new 0 0 1024 1024" xml:space="preserve">
<path fill="#000000" opacity="1.000000" stroke="none" 
	d="
M1.000000,808.468628 
	C3.638381,813.657715 3.133741,819.903015 4.176808,825.848450 
	C7.492347,844.747192 13.236418,862.855835 20.721331,880.454041 
	C27.313799,895.953918 35.760033,910.433777 45.615215,924.057678 
	C62.600254,947.538208 83.090378,967.432373 107.199097,983.583740 
	C124.548225,995.206543 143.115692,1004.439087 162.800110,1011.245972 
	C177.358658,1016.280396 192.379074,1019.613953 207.693329,1021.795532 
	C221.096207,1023.704773 234.505814,1023.648010 247.951538,1023.648132 
	C429.904633,1023.649658 611.857788,1023.707825 793.810730,1023.582397 
	C819.438171,1023.564758 844.046631,1017.565979 868.067749,1008.919678 
	C891.911743,1000.337158 913.530334,987.669312 933.339050,972.126770 
	C946.217163,962.022095 957.939087,950.571777 968.420105,937.764465 
	C981.442627,921.851562 992.554871,904.852234 1001.278870,886.320801 
	C1011.657166,864.275330 1018.374451,841.138245 1021.792419,816.936707 
	C1024.742798,796.045776 1022.920105,775.075134 1024.063599,754.172363 
	C1024.181274,752.020142 1024.427368,749.874817 1024.806885,747.363159 
	C1025.000000,839.639954 1025.000000,932.279968 1025.000000,1024.937622 
	C683.666687,1024.937622 342.333344,1024.937622 1.000000,1024.937622 
	C1.000000,952.895935 1.000000,880.916626 1.000000,808.468628 
z"/>
<path fill="#000000" opacity="1.000000" stroke="none" 
	d="
M1025.000000,247.531342 
	C1023.718689,245.674866 1024.074341,243.118057 1024.069092,240.649460 
	C1024.012207,213.892975 1019.940918,187.754517 1011.201660,162.481232 
	C1002.065430,136.060013 988.654480,111.940552 971.097046,90.083740 
	C948.555603,62.022354 921.020630,40.200169 888.804443,24.498062 
	C866.651184,13.700603 843.263977,6.302784 818.648987,3.291340 
	C815.543518,2.911411 812.469604,2.273569 809.190552,1.377617 
	C880.931946,1.000000 952.863831,1.000000 1025.000000,1.000000 
	C1025.000000,83.020782 1025.000000,165.041733 1025.000000,247.531342 
z"/>
<path fill="#000000" opacity="1.000000" stroke="none" 
	d="
M215.531342,1.000000 
	C210.925980,3.608785 205.207001,3.274081 199.819702,4.220257 
	C181.608978,7.418626 164.042862,12.518163 146.946457,19.531263 
	C126.188202,28.046488 107.399651,39.852791 89.878571,53.637596 
	C78.117836,62.890423 67.841263,73.799973 57.936485,85.054024 
	C43.446724,101.517662 31.986662,119.899925 22.689198,139.659164 
	C13.820146,158.507919 7.715893,178.261703 4.319005,198.832794 
	C3.406983,204.355865 2.490709,209.878250 1.288194,215.700470 
	C1.000000,144.406296 1.000000,72.812584 1.000000,1.000000 
	C72.354080,1.000000 143.708374,1.000000 215.531342,1.000000 
z"/>
<path fill="#000000" opacity="1.000000" stroke="none" 
	d="
M482.402100,799.474487 
	C456.745667,813.039795 431.525208,826.639099 406.070740,839.785278 
	C325.776001,881.254333 228.809906,833.445435 212.605682,744.524170 
	C202.236694,687.623840 229.685806,630.453430 280.613281,603.031677 
	C295.573700,594.976257 310.629730,587.098328 325.633026,579.122314 
	C327.079620,578.353333 328.758850,577.902344 329.779938,576.305176 
	C328.601532,574.440857 326.438538,574.309998 324.695404,573.533142 
	C307.828735,566.016357 289.920471,560.709412 274.215149,550.739136 
	C239.044998,528.411926 217.834183,496.646484 211.632339,455.356964 
	C202.892883,397.173126 233.855148,342.947205 283.402374,317.111084 
	C347.949036,283.453522 412.143768,249.120758 476.474213,215.048813 
	C511.949158,196.259888 547.318787,177.270996 582.863770,158.615845 
	C663.017639,116.548599 758.250549,160.482712 777.887146,248.928329 
	C790.547363,305.952087 763.560547,366.322754 709.563965,394.529999 
	C693.337891,403.006348 677.236328,411.720917 660.836304,420.454926 
	C661.943787,422.562958 663.881653,422.780792 665.425598,423.435822 
	C678.150330,428.834442 691.180298,433.594971 703.599487,439.617523 
	C746.203613,460.277771 771.773071,494.182709 779.323669,540.917786 
	C788.335205,596.695984 760.842224,651.960999 711.082764,678.459167 
	C635.070740,718.937439 558.858276,759.039368 482.402100,799.474487 
M412.599854,290.181183 
	C374.756348,310.192230 336.913422,330.204437 299.069122,350.214020 
	C263.630096,368.951874 242.108475,406.568054 247.741241,448.870453 
	C252.649994,485.735413 273.649017,511.692017 307.842560,526.474976 
	C327.251373,534.866089 346.898926,542.712036 366.531311,550.572876 
	C370.239716,552.057739 371.530060,554.028442 371.435852,557.979797 
	C371.177734,568.804932 371.145569,579.645691 371.442200,590.468811 
	C371.562439,594.855957 370.274597,597.306580 366.222137,599.400208 
	C343.728577,611.021057 321.395935,622.954041 299.031097,634.823303 
	C240.780991,665.736938 229.118698,744.104675 275.891571,790.213745 
	C306.062531,819.956543 351.595032,826.760315 389.993347,806.810608 
	C422.512756,789.915283 454.779358,772.533752 487.177643,755.404846 
	C555.508423,719.278503 623.893860,683.255371 692.173767,647.033203 
	C729.289429,627.343506 749.624634,587.309265 743.302063,546.898010 
	C737.708130,511.144135 717.488220,485.729584 684.190002,471.295715 
	C664.483582,462.753448 644.503479,454.836517 624.569824,446.829315 
	C620.935242,445.369354 619.487549,443.430420 619.578125,439.437592 
	C619.831116,428.278809 619.825562,417.106903 619.574463,405.947968 
	C619.486755,402.051514 620.848083,399.989532 624.274902,398.204193 
	C647.467712,386.120789 670.708801,374.114502 693.631836,361.532379 
	C729.283630,341.963623 749.387207,304.017059 743.199402,262.486847 
	C733.199341,195.369720 662.252808,159.151428 601.968079,190.273315 
	C538.771301,222.898499 476.125122,256.590363 412.599854,290.181183 
z"/>
<path fill="#000000" opacity="1.000000" stroke="none" 
	d="
M512.767090,546.852783 
	C483.347107,562.416138 454.252869,577.801025 424.239807,593.671875 
	C424.239807,529.960144 424.239807,467.475433 424.239807,403.640259 
	C483.952026,435.243683 542.986450,466.488373 602.020874,497.733063 
	C602.106384,498.285614 602.191833,498.838135 602.277344,499.390686 
	C572.549133,515.151855 542.820984,530.913086 512.767090,546.852783 
z"/>
</svg>