<svg version="1.1" id="Layer_1" xmlns="http://www.w3.org/2000/svg" xmlns:xlink="http://www.w3.org/1999/xlink" x="0px" y="0px"
	 width="100%" viewBox="0 0 95 400" enable-background="new 0 0 95 400" xml:space="preserve">
<path fill="#010101" opacity="1.000000" stroke="none" 
	d="
M0.999999,210.000000 
	C1.000000,204.645065 1.000000,199.290146 1.346354,193.315796 
	C2.053847,191.425201 2.427906,190.157532 2.774179,188.882294 
	C7.752515,170.548538 23.090279,156.280167 40.279591,153.996857 
	C61.535919,151.173309 80.037773,159.828476 89.907768,177.705917 
	C92.539246,182.472290 94.001137,187.884369 96.000000,193.000000 
	C96.000000,198.354935 96.000000,203.709854 95.652626,209.671173 
	C94.960732,211.383209 94.585426,212.480316 94.276260,213.595764 
	C88.489098,234.475357 69.832405,248.952316 48.647877,248.992813 
	C27.442648,249.033340 8.618727,234.517746 2.847267,213.747116 
	C2.480943,212.428772 1.627061,211.245895 0.999999,210.000000 
z"/>
<path fill="#010101" opacity="1.000000" stroke="none" 
	d="
M96.000000,45.000000 
	C96.000000,50.354931 96.000000,55.709858 95.647026,61.659836 
	C94.943382,63.360195 94.555206,64.455170 94.247589,65.572334 
	C88.502892,86.435799 69.735832,100.863731 48.408909,100.801735 
	C27.289431,100.740341 8.490426,86.243530 2.860181,65.751686 
	C2.497175,64.430496 1.631723,63.247356 1.000000,62.000000 
	C1.000000,56.311958 1.000000,50.623920 1.359547,44.366127 
	C2.117227,42.536495 2.513264,41.275944 2.913802,40.016830 
	C9.460832,19.435881 23.531649,7.407160 44.920803,5.509969 
	C63.813427,3.834218 78.817596,11.905017 88.851196,28.040052 
	C92.050888,33.185471 93.662003,39.318741 96.000000,45.000000 
z"/>
<path fill="#010101" opacity="1.000000" stroke="none" 
	d="
M96.000000,341.000000 
	C96.000000,346.688049 96.000000,352.376068 95.643288,358.628113 
	C94.964859,359.954498 94.563606,360.693634 94.333031,361.482635 
	C87.966698,383.266541 70.000214,397.026978 47.939663,396.994904 
	C26.948296,396.964386 8.939052,382.708984 2.717376,361.264984 
	C2.381677,360.107941 1.583095,359.085236 0.999996,358.000000 
	C1.000000,352.645081 1.000000,347.290131 1.349859,341.325989 
	C2.060440,339.441864 2.430684,338.169495 2.780457,336.891571 
	C7.847036,318.380585 23.484406,304.101196 40.992592,302.001373 
	C61.884109,299.495819 80.006676,308.106201 89.808510,325.696930 
	C92.466423,330.466919 93.967796,335.881348 96.000000,341.000000 
z"/>
<path fill="#FEFEFE" opacity="1.000000" stroke="none" 
	d="
M96.000000,340.531342 
	C93.967796,335.881348 92.466423,330.466919 89.808510,325.696930 
	C80.006676,308.106201 61.884109,299.495819 40.992592,302.001373 
	C23.484406,304.101196 7.847036,318.380585 2.780457,336.891571 
	C2.430684,338.169495 2.060440,339.441864 1.349859,340.858398 
	C1.000000,297.645782 1.000000,254.291550 0.999999,210.468658 
	C1.627061,211.245895 2.480943,212.428772 2.847267,213.747116 
	C8.618727,234.517746 27.442648,249.033340 48.647877,248.992813 
	C69.832405,248.952316 88.489098,234.475357 94.276260,213.595764 
	C94.585426,212.480316 94.960732,211.383209 95.652626,210.138779 
	C96.000000,253.354233 96.000000,296.708466 96.000000,340.531342 
z"/>
<path fill="#FEFEFE" opacity="1.000000" stroke="none" 
	d="
M1.000000,62.468658 
	C1.631723,63.247356 2.497175,64.430496 2.860181,65.751686 
	C8.490426,86.243530 27.289431,100.740341 48.408909,100.801735 
	C69.735832,100.863731 88.502892,86.435799 94.247589,65.572334 
	C94.555206,64.455170 94.943382,63.360195 95.647026,62.127441 
	C96.000000,105.354225 96.000000,148.708450 96.000000,192.531342 
	C94.001137,187.884369 92.539246,182.472290 89.907768,177.705917 
	C80.037773,159.828476 61.535919,151.173309 40.279591,153.996857 
	C23.090279,156.280167 7.752515,170.548538 2.774179,188.882294 
	C2.427906,190.157532 2.053847,191.425201 1.346354,192.848206 
	C1.000000,149.645767 1.000000,106.291542 1.000000,62.468658 
z"/>
<path fill="#FCFCFC" opacity="1.000000" stroke="none" 
	d="
M96.000000,44.531342 
	C93.662003,39.318741 92.050888,33.185471 88.851196,28.040052 
	C78.817596,11.905017 63.813427,3.834218 44.920803,5.509969 
	C23.531649,7.407160 9.460832,19.435881 2.913802,40.016830 
	C2.513264,41.275944 2.117227,42.536495 1.359547,43.898186 
	C1.000000,29.701200 1.000000,15.402399 1.000000,1.051800 
	C32.555771,1.051800 64.111641,1.051800 96.000000,1.051800 
	C96.000000,15.352516 96.000000,29.707600 96.000000,44.531342 
z"/>
<path fill="#FCFCFC" opacity="1.000000" stroke="none" 
	d="
M0.999996,358.468658 
	C1.583095,359.085236 2.381677,360.107941 2.717376,361.264984 
	C8.939052,382.708984 26.948296,396.964386 47.939663,396.994904 
	C70.000214,397.026978 87.966698,383.266541 94.333031,361.482635 
	C94.563606,360.693634 94.964859,359.954498 95.643288,359.096069 
	C96.000000,372.965881 96.000000,386.931793 96.000000,400.948853 
	C64.444656,400.948853 32.889210,400.948853 1.000000,400.948853 
	C1.000000,386.980865 1.000000,372.959106 0.999996,358.468658 
z"/>
</svg>